<mxfile host="drawio-plugin" modified="2024-01-11T17:20:57.244Z" agent="5.0 (Windows NT 6.2; Win64; x64) AppleWebKit/537.36 (KHTML, like Gecko) Chrome/104.0.5112.102 Safari/537.36" etag="3Kdn7WcmHWaG8AyOLzmL" version="20.5.3" type="embed"><diagram id="_ilnPnp7Pez-dW7edlnr" name="Page-1"><mxGraphModel dx="684" dy="563" grid="1" gridSize="10" guides="1" tooltips="1" connect="1" arrows="1" fold="1" page="1" pageScale="1" pageWidth="850" pageHeight="1100" math="0" shadow="0"><root><mxCell id="0"/><mxCell id="1" parent="0"/><mxCell id="9" value="«interface»&lt;br&gt;&lt;b&gt;NewUser&lt;/b&gt;" style="html=1;fillColor=#60a917;fontColor=#ffffff;strokeColor=#2D7600;" vertex="1" parent="1"><mxGeometry x="248" y="50" width="182" height="30" as="geometry"/></mxCell><mxCell id="10" value="&lt;p style=&quot;margin: 4px 0px 0px;&quot;&gt;+ method: getUserName()&amp;nbsp; &amp;nbsp;String&lt;br&gt;+ method:deliver()&lt;br&gt;&lt;/p&gt;" style="verticalAlign=top;align=left;overflow=fill;fontSize=12;fontFamily=Helvetica;html=1;fillColor=#6d8764;fontColor=#ffffff;strokeColor=#3A5431;" vertex="1" parent="1"><mxGeometry x="248" y="80" width="182" height="20" as="geometry"/></mxCell><mxCell id="11" value="OldUser" style="swimlane;fontStyle=1;align=center;verticalAlign=top;childLayout=stackLayout;horizontal=1;startSize=26;horizontalStack=0;resizeParent=1;resizeParentMax=0;resizeLast=0;collapsible=1;marginBottom=0;fillColor=#1ba1e2;fontColor=#ffffff;strokeColor=#006EAF;" vertex="1" parent="1"><mxGeometry x="30" y="160" width="180" height="70" as="geometry"/></mxCell><mxCell id="12" value="+ field: age                        int" style="text;strokeColor=#432D57;fillColor=#76608a;align=left;verticalAlign=top;spacingLeft=4;spacingRight=4;overflow=hidden;rotatable=0;points=[[0,0.5],[1,0.5]];portConstraint=eastwest;fontColor=#ffffff;" vertex="1" parent="11"><mxGeometry y="26" width="180" height="22" as="geometry"/></mxCell><mxCell id="29" value="+ field: name                     String" style="text;strokeColor=#432D57;fillColor=#76608a;align=left;verticalAlign=top;spacingLeft=4;spacingRight=4;overflow=hidden;rotatable=0;points=[[0,0.5],[1,0.5]];portConstraint=eastwest;fontColor=#ffffff;" vertex="1" parent="11"><mxGeometry y="48" width="180" height="22" as="geometry"/></mxCell><mxCell id="15" value="UserAdapter" style="swimlane;fontStyle=1;align=center;verticalAlign=top;childLayout=stackLayout;horizontal=1;startSize=26;horizontalStack=0;resizeParent=1;resizeParentMax=0;resizeLast=0;collapsible=1;marginBottom=0;fillColor=#1ba1e2;fontColor=#ffffff;strokeColor=#006EAF;" vertex="1" parent="1"><mxGeometry x="470" y="150" width="180" height="48" as="geometry"/></mxCell><mxCell id="16" value="+ field: oldUser            OldUser" style="text;strokeColor=#432D57;fillColor=#76608a;align=left;verticalAlign=top;spacingLeft=4;spacingRight=4;overflow=hidden;rotatable=0;points=[[0,0.5],[1,0.5]];portConstraint=eastwest;fontColor=#ffffff;" vertex="1" parent="15"><mxGeometry y="26" width="180" height="22" as="geometry"/></mxCell><mxCell id="21" value="" style="endArrow=block;dashed=1;endFill=0;endSize=12;html=1;rounded=0;fillColor=#60a917;strokeColor=#80FF00;entryX=1;entryY=0;entryDx=0;entryDy=0;" edge="1" parent="1" target="10"><mxGeometry width="160" relative="1" as="geometry"><mxPoint x="570" y="150" as="sourcePoint"/><mxPoint x="500" y="60" as="targetPoint"/><Array as="points"><mxPoint x="570" y="150"/></Array></mxGeometry></mxCell><mxCell id="26" value="&lt;p style=&quot;margin: 4px 0px 0px;&quot;&gt;+ method: getAge&amp;nbsp; &amp;nbsp; &amp;nbsp; &amp;nbsp; &amp;nbsp; &amp;nbsp; &amp;nbsp; &amp;nbsp; &amp;nbsp;int&lt;br&gt;+ method:deliver()&lt;br&gt;&lt;/p&gt;" style="verticalAlign=top;align=left;overflow=fill;fontSize=12;fontFamily=Helvetica;html=1;fillColor=#6d8764;fontColor=#ffffff;strokeColor=#3A5431;" vertex="1" parent="1"><mxGeometry x="248" y="100" width="182" height="20" as="geometry"/></mxCell><mxCell id="27" value="&lt;p style=&quot;margin: 4px 0px 0px;&quot;&gt;+ method: getUserName()&amp;nbsp; &amp;nbsp;String&lt;br&gt;+ method:deliver()&lt;br&gt;&lt;/p&gt;" style="verticalAlign=top;align=left;overflow=fill;fontSize=12;fontFamily=Helvetica;html=1;fillColor=#6d8764;fontColor=#ffffff;strokeColor=#3A5431;" vertex="1" parent="1"><mxGeometry x="470" y="198" width="180" height="20" as="geometry"/></mxCell><mxCell id="28" value="&lt;p style=&quot;margin: 4px 0px 0px;&quot;&gt;+ method: getAge&amp;nbsp; &amp;nbsp; &amp;nbsp; &amp;nbsp; &amp;nbsp; &amp;nbsp; &amp;nbsp; &amp;nbsp; &amp;nbsp;int&lt;br&gt;+ method:deliver()&lt;br&gt;&lt;/p&gt;" style="verticalAlign=top;align=left;overflow=fill;fontSize=12;fontFamily=Helvetica;html=1;fillColor=#6d8764;fontColor=#ffffff;strokeColor=#3A5431;" vertex="1" parent="1"><mxGeometry x="470" y="218" width="180" height="20" as="geometry"/></mxCell></root></mxGraphModel></diagram></mxfile>